<svg width="176" height="209" viewBox="0 0 176 209" fill="none" xmlns="http://www.w3.org/2000/svg">
<path d="M176 104.005C176.007 106.721 175.31 109.393 173.978 111.76C172.647 114.128 170.725 116.11 168.4 117.515L24.32 205.655C21.8909 207.142 19.1087 207.954 16.2608 208.007C13.4129 208.06 10.6025 207.352 8.12 205.955C5.6611 204.58 3.61276 202.575 2.18564 200.146C0.758514 197.717 0.00410858 194.952 0 192.135V15.875C0.00410858 13.0578 0.758514 10.2926 2.18564 7.8637C3.61276 5.43478 5.6611 3.42982 8.12 2.05499C10.6025 0.658477 13.4129 -0.0499953 16.2608 0.00274346C19.1087 0.0554822 21.8909 0.867521 24.32 2.35499L168.4 90.495C170.725 91.8997 172.647 93.8822 173.978 96.2496C175.31 98.617 176.007 101.289 176 104.005Z" fill="#FF0000"/>
</svg>
